<?xml version="1.0" encoding="UTF-8"?>
<svg version="1.1" xmlns="http://www.w3.org/2000/svg" width="200" height="200">
<path d="M0 0 C1.0825708 -0.01151093 1.0825708 -0.01151093 2.18701172 -0.02325439 C12.13998524 -0.10762554 21.06873611 0.87133868 30.75 3.375 C31.4824292 3.54789551 32.2148584 3.72079102 32.96948242 3.89892578 C35.56163949 4.59201591 37.88524276 5.73897756 40.3125 6.875 C43.12211176 8.1864063 45.80685576 9.39395192 48.75 10.375 C48.75 11.035 48.75 11.695 48.75 12.375 C49.4615625 12.63667969 50.173125 12.89835938 50.90625 13.16796875 C57.97558101 16.16855018 64.66929806 20.60771671 69.75 26.375 C70.43320313 27.11363281 71.11640625 27.85226563 71.8203125 28.61328125 C77.75 35.09048345 77.75 35.09048345 77.75 37.375 C78.41 37.375 79.07 37.375 79.75 37.375 C82.33316736 39.5287937 83.83115447 42.00941671 85.4375 44.9375 C85.87449219 45.72253906 86.31148437 46.50757813 86.76171875 47.31640625 C87.75 49.375 87.75 49.375 87.75 51.375 C88.41 51.375 89.07 51.375 89.75 51.375 C95.34517742 64.10173554 99.89635135 76.42421975 99.91796875 90.44921875 C99.92129715 91.21369827 99.92462555 91.9781778 99.92805481 92.76582336 C99.93309729 94.37862552 99.93546397 95.99143802 99.93530273 97.60424805 C99.9374779 100.03777866 99.95563078 102.47084694 99.97460938 104.90429688 C100.01008371 114.76351165 99.18160971 123.78934578 96.75 133.375 C96.09 133.375 95.43 133.375 94.75 133.375 C94.5953125 134.921875 94.5953125 134.921875 94.4375 136.5 C93.75089073 140.36997951 92.64505364 142.96390344 90.75 146.375 C90.46125 147.014375 90.1725 147.65375 89.875 148.3125 C88.43551585 150.95155427 86.67386763 153.2894909 84.87109375 155.69140625 C83.56448821 157.49386765 83.56448821 157.49386765 82.75 160.375 C80.83808268 162.47194158 79.29517148 164.10241426 76.75 165.375 C76.46125 165.96796875 76.1725 166.5609375 75.875 167.171875 C74.52502101 169.81558386 72.85328464 171.53718069 70.75 173.625 C69.698125 174.68460937 69.698125 174.68460937 68.625 175.765625 C66.75 177.375 66.75 177.375 64.75 177.375 C64.42 178.035 64.09 178.695 63.75 179.375 C60.26843041 183.58189659 55.63234912 186.0752062 50.75 188.375 C50.09 188.375 49.43 188.375 48.75 188.375 C48.75 189.035 48.75 189.695 48.75 190.375 C46.83717875 191.21712256 44.91957527 192.04838864 43 192.875 C41.93265625 193.3390625 40.8653125 193.803125 39.765625 194.28125 C36.75 195.375 36.75 195.375 32.75 195.375 C32.75 196.035 32.75 196.695 32.75 197.375 C31.3754817 197.68961197 30.00035581 198.00156973 28.625 198.3125 C27.85929688 198.48652344 27.09359375 198.66054687 26.3046875 198.83984375 C20.72178287 200.0093513 15.37804924 200.53417957 9.67578125 200.54296875 C8.91130173 200.54629715 8.1468222 200.54962555 7.35917664 200.55305481 C5.74637448 200.55809729 4.13356198 200.56046397 2.52075195 200.56030273 C0.08722134 200.5624779 -2.34584694 200.58063078 -4.77929688 200.59960938 C-14.63851165 200.63508371 -23.66434578 199.80660971 -33.25 197.375 C-33.25 196.715 -33.25 196.055 -33.25 195.375 C-34.219375 195.2925 -35.18875 195.21 -36.1875 195.125 C-40.92119101 194.4750875 -44.98984407 192.45194677 -49.25 190.375 C-49.25 189.715 -49.25 189.055 -49.25 188.375 C-49.95125 188.106875 -50.6525 187.83875 -51.375 187.5625 C-60.6103352 183.74790503 -60.6103352 183.74790503 -63.25 180.375 C-63.25 179.715 -63.25 179.055 -63.25 178.375 C-63.99121094 178.12363281 -64.73242188 177.87226563 -65.49609375 177.61328125 C-68.45579277 176.28246623 -70.07499601 174.88897035 -72.3125 172.5625 C-72.96347656 171.89605469 -73.61445312 171.22960937 -74.28515625 170.54296875 C-78.08768966 166.3473305 -81.34737433 161.88724753 -84.5 157.1875 C-85.20640625 156.14207031 -85.9128125 155.09664062 -86.640625 154.01953125 C-88.25 151.375 -88.25 151.375 -88.25 149.375 C-88.91 149.375 -89.57 149.375 -90.25 149.375 C-90.58773437 148.53195313 -90.92546875 147.68890625 -91.2734375 146.8203125 C-91.94246094 145.17675781 -91.94246094 145.17675781 -92.625 143.5 C-93.06585938 142.40945312 -93.50671875 141.31890625 -93.9609375 140.1953125 C-95.08051338 137.31170638 -95.08051338 137.31170638 -97.25 135.375 C-103.12810521 115.0982334 -103.32269858 85.62661407 -97.25 65.375 C-96.26 64.88 -96.26 64.88 -95.25 64.375 C-94.59786708 62.35036745 -94.59786708 62.35036745 -94.25 60.375 C-93.59 60.375 -92.93 60.375 -92.25 60.375 C-91.59 57.405 -90.93 54.435 -90.25 51.375 C-89.59 51.375 -88.93 51.375 -88.25 51.375 C-87.92 50.055 -87.59 48.735 -87.25 47.375 C-86.59 47.375 -85.93 47.375 -85.25 47.375 C-85.1675 46.83875 -85.085 46.3025 -85 45.75 C-83.97418729 42.50159309 -82.28436106 40.08748141 -80.25 37.375 C-79.59 37.375 -78.93 37.375 -78.25 37.375 C-77.99863281 36.63636719 -77.74726562 35.89773437 -77.48828125 35.13671875 C-76.15761914 32.16896445 -74.74021185 30.4637945 -72.4375 28.1875 C-71.77105469 27.51332031 -71.10460937 26.83914062 -70.41796875 26.14453125 C-68.11844941 24.26762628 -66.0460794 23.32654535 -63.25 22.375 C-63.25 21.715 -63.25 21.055 -63.25 20.375 C-61.82421875 19.0859375 -61.82421875 19.0859375 -59.9375 17.75 C-59.32261719 17.30398437 -58.70773438 16.85796875 -58.07421875 16.3984375 C-56.25 15.375 -56.25 15.375 -53.25 15.375 C-53.25 14.715 -53.25 14.055 -53.25 13.375 C-51.93 13.045 -50.61 12.715 -49.25 12.375 C-49.25 11.715 -49.25 11.055 -49.25 10.375 C-48.40695313 10.03726562 -47.56390625 9.69953125 -46.6953125 9.3515625 C-45.05175781 8.68253906 -45.05175781 8.68253906 -43.375 8 C-42.28445312 7.55914063 -41.19390625 7.11828125 -40.0703125 6.6640625 C-37.18670638 5.54448662 -37.18670638 5.54448662 -35.25 3.375 C-23.79817832 0.05518999 -11.82769936 0.05299724 0 0 Z " fill="#E61B37" transform="translate(100.25,-0.375)"/>
<path d="M0 0 C3.39353817 2.64695977 4.73776701 4.02814414 5.30078125 8.26171875 C5.39131786 9.82670878 5.4798867 11.391814 5.56640625 12.95703125 C5.85644071 15.38337601 5.85644071 15.38337601 8.875 17.3125 C9.90625 17.869375 10.9375 18.42625 12 19 C15.23756458 22.29807981 15.40644629 24.90399285 15.375 29.4375 C15.38273438 30.54996094 15.39046875 31.66242188 15.3984375 32.80859375 C14.8203775 37.438741 12.67478005 41.09079913 9 44 C8.01 44 7.02 44 6 44 C5.4737841 53.54873698 5.4737841 53.54873698 8.58984375 62.0703125 C10.7008235 63.50062109 10.7008235 63.50062109 14 65 C15.16698437 68.50095311 15.13268287 71.3122232 15.125 75 C15.12757813 76.2375 15.13015625 77.475 15.1328125 78.75 C15 82 15 82 14 85 C7.82306078 90.0995661 1.74417328 90.65137906 -6 90 C-6.125 82.25 -6.125 82.25 -5 80 C-2.69 80 -0.38 80 2 80 C2.33 77.03 2.66 74.06 3 71 C2.05125 71.020625 1.1025 71.04125 0.125 71.0625 C-3 71 -3 71 -5 70 C-5 58.12 -5 46.24 -5 34 C-2.36 34 0.28 34 3 34 C3 31.36 3 28.72 3 26 C0.36 26 -2.28 26 -5 26 C-5 21.05 -5 16.1 -5 11 C-6.2375 11.495 -7.475 11.99 -8.75 12.5 C-11.89760758 13.75904303 -13.44953334 14 -17 14 C-17 18.29 -17 22.58 -17 27 C-18.98 27 -20.96 27 -23 27 C-23 29.31 -23 31.62 -23 34 C-21.02 34 -19.04 34 -17 34 C-16.505 53.8 -16.505 53.8 -16 74 C-18.66666667 75.33333333 -21.33333333 76.66666667 -24 78 C-24 77.34 -24 76.68 -24 76 C-26.64 76 -29.28 76 -32 76 C-32.01458252 74.81446533 -32.02916504 73.62893066 -32.04418945 72.4074707 C-32.10225938 67.99961523 -32.17949184 63.59226596 -32.26245117 59.18481445 C-32.29565962 57.27897369 -32.32370425 55.37303554 -32.34643555 53.46704102 C-32.38005668 50.72369985 -32.43237595 47.98124778 -32.48828125 45.23828125 C-32.49467117 44.38913651 -32.5010611 43.53999176 -32.50764465 42.66511536 C-32.62410618 37.95554864 -32.99013652 34.84176956 -36 31 C-41.8709297 25.4380666 -47.85790157 25.73027518 -55.6171875 25.765625 C-60.36068644 26.09427389 -64.57200583 27.32076067 -69 29 C-68.505 32.465 -68.505 32.465 -68 36 C-67.113125 35.505 -66.22625 35.01 -65.3125 34.5 C-59.82336814 32.08432834 -53.86859393 32.76172626 -48 33 C-48 33.66 -48 34.32 -48 35 C-47.360625 35.309375 -46.72125 35.61875 -46.0625 35.9375 C-44 37 -44 37 -43 38 C-42.95907063 40.33297433 -42.95758277 42.66705225 -43 45 C-44.2065625 45.14695313 -45.413125 45.29390625 -46.65625 45.4453125 C-59.13071042 46.84351055 -59.13071042 46.84351055 -69 54 C-72.32079955 58.98119932 -71.57201829 66.13990857 -70.4375 71.8125 C-67.54287133 76.21736971 -63.63984165 78.61240106 -58.5625 79.8125 C-57.2940625 79.9053125 -57.2940625 79.9053125 -56 80 C-56.495 81.485 -56.495 81.485 -57 83 C-57.83660156 82.84015625 -58.67320313 82.6803125 -59.53515625 82.515625 C-68.19411254 81.22703173 -77.2221075 80.5807429 -85 85 C-88 86 -88 86 -91 85 C-91 84.34 -91 83.68 -91 83 C-100.76257941 83.25914584 -100.76257941 83.25914584 -109 88 C-112.79638264 88.63273044 -114.8742173 88.63995966 -118.25390625 86.71875 C-125.9084172 81.01996012 -132.52657417 73.58380942 -134.3984375 63.94921875 C-134.70327529 61.6299799 -134.87253547 59.33560002 -135 57 C-135.06445312 56.16597656 -135.12890625 55.33195312 -135.1953125 54.47265625 C-135.64403727 44.28660387 -133.34649855 33.58397051 -126.640625 25.67578125 C-120.25363314 19.15192528 -114.34186988 14.27294124 -104.9140625 13.8671875 C-88.67094986 13.90576972 -88.67094986 13.90576972 -81.796875 19.625 C-79.93918937 21.2010396 -79.93918937 21.2010396 -77 22 C-76.505 20.515 -76.505 20.515 -76 19 C-73.890625 17.8671875 -73.890625 17.8671875 -71.25 16.875 C-70.38890625 16.54242188 -69.5278125 16.20984375 -68.640625 15.8671875 C-63.18599183 14.07587306 -58.19024192 13.84551688 -52.5 13.875 C-51.75363281 13.87113281 -51.00726563 13.86726563 -50.23828125 13.86328125 C-46.35860414 13.87014794 -42.78919102 14.05270224 -39 15 C-39 15.66 -39 16.32 -39 17 C-38.236875 17.144375 -37.47375 17.28875 -36.6875 17.4375 C-34 18 -34 18 -31 19 C-31 18.34 -31 17.68 -31 17 C-30.34 17 -29.68 17 -29 17 C-28.938125 15.783125 -28.87625 14.56625 -28.8125 13.3125 C-28.38771089 10.2246099 -27.95752729 8.93555865 -26.1875 6.25 C-18.87139489 1.08569051 -8.92850908 -1.91007906 0 0 Z " fill="#292123" transform="translate(160,36)"/>
<path d="M0 0 C0 4.95 0 9.9 0 15 C2.64 15 5.28 15 8 15 C8 17.64 8 20.28 8 23 C5.36 23 2.72 23 0 23 C0 34.88 0 46.76 0 59 C2.64 59.33 5.28 59.66 8 60 C8.125 66.75 8.125 66.75 7 69 C4.69 69 2.38 69 0 69 C-0.33 72.3 -0.66 75.6 -1 79 C1.64 79 4.28 79 7 79 C7 79.33 7 79.66 7 80 C4.03 80 1.06 80 -2 80 C-2.02578125 80.64324219 -2.0515625 81.28648437 -2.078125 81.94921875 C-2.49843661 88.64554685 -3.91658701 94.48139929 -6.0234375 100.83984375 C-7.16089423 104.52065373 -7.84746858 108.17051782 -8.41015625 111.9765625 C-9.15263999 114.52362594 -9.80779415 115.49138522 -12 117 C-14.8125 117.3984375 -14.8125 117.3984375 -18 117.375 C-19.051875 117.38273437 -20.10375 117.39046875 -21.1875 117.3984375 C-24 117 -24 117 -25.8515625 115.70703125 C-27.8625261 112.7179459 -27.4725331 109.42283592 -27 106 C-26.17703731 103.21422401 -25.14807188 100.6788344 -24 98 C-24.66 98 -25.32 98 -26 98 C-26.37125 98.86625 -26.37125 98.86625 -26.75 99.75 C-29.03877583 103.86979649 -31.00827976 105.6458142 -35.5 107.25 C-39.06741608 108.03016389 -42.41939855 108.02413195 -46.0625 107.9375 C-51.18930255 107.82841909 -54.29982375 108.91103278 -59 111 C-63.69291365 111.45859091 -68.07256851 111.18863013 -72.6875 110.25 C-76.54089989 109.95917737 -77.71863022 111.01377076 -80.84375 113.06640625 C-86.16190191 115.36901188 -93.29937814 114.86805703 -98.734375 113.12109375 C-103.51109891 110.75743899 -106.65252922 106.69494157 -109 102 C-111.32654428 94.38585507 -110.55393676 85.10787352 -107 78 C-107.66 77.67 -108.32 77.34 -109 77 C-107.700625 76.5978125 -107.700625 76.5978125 -106.375 76.1875 C-103.01651657 75.13480869 -103.01651657 75.13480869 -100.3125 73.375 C-95.55610578 71.40064768 -91.08249662 71.75582312 -86 72 C-86 72.66 -86 73.32 -86 74 C-81.8015641 74.34986966 -80.22530013 73.60104849 -77 71 C-73.28052102 69.678491 -69.53430577 69.86719699 -65.625 69.875 C-63.69527344 69.87113281 -63.69527344 69.87113281 -61.7265625 69.8671875 C-58.3825749 69.98636526 -55.27902051 70.36043872 -52 71 C-51.67 70.34 -51.34 69.68 -51 69 C-52.2375 69.185625 -52.2375 69.185625 -53.5 69.375 C-58.51333372 68.8378571 -61.41407084 66.4296616 -65 63 C-67.92665821 58.61001269 -67.38019098 53.10300785 -67 48 C-65.93511898 42.793915 -62.2525712 39.88161909 -58 37 C-51.70206692 34.35486811 -44.75130057 34.3857886 -38 34 C-38.19859979 28.99150873 -38.19859979 28.99150873 -41.0625 25.1875 C-41.701875 24.795625 -42.34125 24.40375 -43 24 C-43 23.34 -43 22.68 -43 22 C-45.0839403 22.11443603 -47.16716493 22.24195547 -49.25 22.375 C-50.99023438 22.47941406 -50.99023438 22.47941406 -52.765625 22.5859375 C-55.75902653 22.96915074 -57.40804905 23.58933643 -60 25 C-60.99 25 -61.98 25 -63 25 C-63.66 22.69 -64.32 20.38 -65 18 C-58.92631898 15.31356416 -54.35599435 13.85172491 -47.625 13.8125 C-46.52414063 13.79832031 -45.42328125 13.78414062 -44.2890625 13.76953125 C-38.39609248 14.18245908 -34.28427599 15.9473065 -30 20 C-26.38615347 24.57630918 -26.60544256 28.6670915 -26.70703125 34.23828125 C-26.71127609 35.11904831 -26.71552094 35.99981537 -26.71989441 36.90727234 C-26.73663356 39.7093311 -26.7742767 42.51066009 -26.8125 45.3125 C-26.82755301 47.21678646 -26.84124034 49.12108424 -26.85351562 51.02539062 C-26.88652146 55.68387322 -26.93827071 60.34181305 -27 65 C-25.72125 65 -24.4425 65 -23.125 65 C-21.08333333 65 -19.04166667 65 -17 65 C-16.01 64.34 -15.02 63.68 -14 63 C-13.01 63 -12.02 63 -11 63 C-11.33 62.34 -11.66 61.68 -12 61 C-12.08691001 58.15570643 -12.11553802 55.33620824 -12.09765625 52.4921875 C-12.0962413 51.65156769 -12.09482635 50.81094788 -12.09336853 49.94485474 C-12.08776237 47.25486725 -12.07520886 44.56496241 -12.0625 41.875 C-12.05748579 40.05338662 -12.05292275 38.23177193 -12.04882812 36.41015625 C-12.03779094 31.94007223 -12.0205222 27.47005014 -12 23 C-13.98 23 -15.96 23 -18 23 C-18 20.69 -18 18.38 -18 16 C-16.02 16 -14.04 16 -12 16 C-12 11.71 -12 7.42 -12 3 C-3.375 0 -3.375 0 0 0 Z " fill="#B7233E" transform="translate(155,47)"/>
<path d="M0 0 C1.10085937 -0.01417969 2.20171875 -0.02835938 3.3359375 -0.04296875 C9.22890752 0.36995908 13.34072401 2.1348065 17.625 6.1875 C21.23884653 10.76380918 21.01955744 14.8545915 20.91796875 20.42578125 C20.91372391 21.30654831 20.90947906 22.18731537 20.90510559 23.09477234 C20.88836644 25.8968311 20.8507233 28.69816009 20.8125 31.5 C20.79744699 33.40428646 20.78375966 35.30858424 20.77148438 37.21289062 C20.73847854 41.87137322 20.68672929 46.52931305 20.625 51.1875 C21.90375 51.1875 23.1825 51.1875 24.5 51.1875 C28.54166667 51.1875 32.58333333 51.1875 36.625 51.1875 C36.295 52.1775 35.965 53.1675 35.625 54.1875 C37.935 54.1875 40.245 54.1875 42.625 54.1875 C42.33625 55.46625 42.0475 56.745 41.75 58.0625 C40.77208854 62.43189165 39.91167394 66.81754367 39.08984375 71.21875 C38.625 73.1875 38.625 73.1875 37.625 74.1875 C37.34171501 75.56202545 37.11149816 76.94761341 36.90625 78.3359375 C36.71482422 79.59664062 36.71482422 79.59664062 36.51953125 80.8828125 C36.38933594 81.76710938 36.25914062 82.65140625 36.125 83.5625 C35.86695494 85.29983307 35.60663101 87.03682959 35.34375 88.7734375 C35.22966797 89.5473584 35.11558594 90.3212793 34.99804688 91.11865234 C34.625 93.1875 34.625 93.1875 33.625 96.1875 C31.645 96.1875 29.665 96.1875 27.625 96.1875 C27.75519531 95.37667969 27.88539063 94.56585938 28.01953125 93.73046875 C29.11331119 84.94956254 27.86205306 79.82703506 23.625 72.1875 C22.51456825 69.96144758 21.41034578 67.73228643 20.3125 65.5 C19.41869188 63.7281436 18.52360919 61.95692634 17.625 60.1875 C16.87863281 60.66832031 16.13226563 61.14914063 15.36328125 61.64453125 C12.10484001 63.48060014 9.31918361 63.82532514 5.625 64.1875 C5.73191236 66.60486836 5.73191236 66.60486836 6.625 69.1875 C8.92068658 70.79672008 8.92068658 70.79672008 11.6875 72 C16.44258669 74.59060911 16.44258669 74.59060911 17.28515625 77.34765625 C17.25 79.5625 17.25 79.5625 16.625 83.1875 C15.965 83.1875 15.305 83.1875 14.625 83.1875 C14.13 84.6725 14.13 84.6725 13.625 86.1875 C10.55455679 88.27595462 8.02587249 88.40857559 4.375 88.3125 C3.48296875 88.29445313 2.5909375 88.27640625 1.671875 88.2578125 C0.99640625 88.23460937 0.3209375 88.21140625 -0.375 88.1875 C-0.045 86.5375 0.285 84.8875 0.625 83.1875 C3.265 82.8575 5.905 82.5275 8.625 82.1875 C9.3064823 80.29570797 9.3064823 80.29570797 9.625 78.1875 C7.72654442 75.96360918 7.72654442 75.96360918 4.75 75.375 C0.97529231 73.94061108 -0.33105621 72.64648179 -2.375 69.1875 C-2.75 66 -2.75 66 -2.375 63.1875 C-1.715 62.5275 -1.055 61.8675 -0.375 61.1875 C-0.20812552 58.60395782 -0.20812552 58.60395782 -0.375 56.1875 C-0.931875 56.18492188 -1.48875 56.18234375 -2.0625 56.1796875 C-8.63959518 55.84638876 -12.71255488 53.8385455 -17.375 49.1875 C-20.30165821 44.79751269 -19.75519098 39.29050785 -19.375 34.1875 C-18.31011898 28.981415 -14.6275712 26.06911909 -10.375 23.1875 C-4.07706692 20.54236811 2.87369943 20.5732886 9.625 20.1875 C9.42640021 15.17900873 9.42640021 15.17900873 6.5625 11.375 C5.923125 10.983125 5.28375 10.59125 4.625 10.1875 C4.625 9.5275 4.625 8.8675 4.625 8.1875 C2.5410597 8.30193603 0.45783507 8.42945547 -1.625 8.5625 C-3.36523438 8.66691406 -3.36523438 8.66691406 -5.140625 8.7734375 C-8.13402653 9.15665074 -9.78304905 9.77683643 -12.375 11.1875 C-13.365 11.1875 -14.355 11.1875 -15.375 11.1875 C-16.035 8.8775 -16.695 6.5675 -17.375 4.1875 C-11.30131898 1.50106416 -6.73099435 0.03922491 0 0 Z " fill="#F1F0F0" transform="translate(107.375,60.8125)"/>
<path d="M0 0 C1.76953125 0.99609375 1.76953125 0.99609375 4.83203125 3.24609375 C5.71890625 3.78234375 6.60578125 4.31859375 7.51953125 4.87109375 C12.14186452 9.61835495 14.06065282 15.74510633 14.14453125 22.30859375 C13.83203125 26.24609375 13.83203125 26.24609375 12.83203125 27.24609375 C6.21473732 28.59963114 -0.44072563 28.33713915 -7.16796875 28.24609375 C-7.16796875 28.90609375 -7.16796875 29.56609375 -7.16796875 30.24609375 C-10.79796875 30.57609375 -14.42796875 30.90609375 -18.16796875 31.24609375 C-17.50796875 34.54609375 -16.84796875 37.84609375 -16.16796875 41.24609375 C-15.17796875 41.57609375 -14.18796875 41.90609375 -13.16796875 42.24609375 C-13.16796875 42.90609375 -13.16796875 43.56609375 -13.16796875 44.24609375 C-10.25123991 44.2731005 -7.33476198 44.29293612 -4.41796875 44.30859375 C-3.59296875 44.31697266 -2.76796875 44.32535156 -1.91796875 44.33398438 C-0.71914062 44.33881836 -0.71914062 44.33881836 0.50390625 44.34375 C1.23706055 44.34898682 1.97021484 44.35422363 2.72558594 44.35961914 C4.87821615 44.24360465 6.76344475 43.83682646 8.83203125 43.24609375 C10.45152136 45.81822509 10.87611876 46.92278534 10.45703125 49.99609375 C10.25078125 50.73859375 10.04453125 51.48109375 9.83203125 52.24609375 C-0.03505214 54.87731599 -9.82431378 55.99988312 -19.16796875 51.24609375 C-25.06229952 46.28949742 -29.43845061 40.00320191 -30.42260742 32.23657227 C-31.03474502 23.50597213 -31.30772252 15.57572629 -25.95703125 8.234375 C-18.89966297 0.39114256 -10.78032952 -3.74883531 0 0 Z " fill="#EEEEEE" transform="translate(67.16796875,61.75390625)"/>
<path d="M0 0 C0.66 0 1.32 0 2 0 C4 0 6 0 8 0 C7.67 0.99 7.34 1.98 7 3 C9.31 3 11.62 3 14 3 C13.71125 4.27875 13.4225 5.5575 13.125 6.875 C12.14708854 11.24439165 11.28667394 15.63004367 10.46484375 20.03125 C10 22 10 22 9 23 C8.71671501 24.37452545 8.48649816 25.76011341 8.28125 27.1484375 C8.08982422 28.40914062 8.08982422 28.40914062 7.89453125 29.6953125 C7.76433594 30.57960937 7.63414062 31.46390625 7.5 32.375 C7.24195494 34.11233307 6.98163101 35.84932959 6.71875 37.5859375 C6.60466797 38.3598584 6.49058594 39.1337793 6.37304688 39.93115234 C6 42 6 42 5 45 C3.02 45 1.04 45 -1 45 C-0.86980469 44.18917969 -0.73960937 43.37835938 -0.60546875 42.54296875 C0.48831119 33.76206254 -0.76294694 28.63953506 -5 21 C-6.11043175 18.77394758 -7.21465422 16.54478643 -8.3125 14.3125 C-9.20630812 12.5406436 -10.10139081 10.76942634 -11 9 C-11.74636719 9.48082031 -12.49273437 9.96164063 -13.26171875 10.45703125 C-16.52015999 12.29310014 -19.30581639 12.63782514 -23 13 C-22.89308764 15.41736836 -22.89308764 15.41736836 -22 18 C-19.70431342 19.60922008 -19.70431342 19.60922008 -16.9375 20.8125 C-12.18241331 23.40310911 -12.18241331 23.40310911 -11.33984375 26.16015625 C-11.375 28.375 -11.375 28.375 -12 32 C-12.66 32 -13.32 32 -14 32 C-14.33 32.99 -14.66 33.98 -15 35 C-18.07044321 37.08845462 -20.59912751 37.22107559 -24.25 37.125 C-25.58804688 37.09792969 -25.58804688 37.09792969 -26.953125 37.0703125 C-27.62859375 37.04710937 -28.3040625 37.02390625 -29 37 C-28.67 35.35 -28.34 33.7 -28 32 C-24.04 31.505 -24.04 31.505 -20 31 C-19.3185177 29.10820797 -19.3185177 29.10820797 -19 27 C-20.89845558 24.77610918 -20.89845558 24.77610918 -23.875 24.1875 C-27.64970769 22.75311108 -28.95605621 21.45898179 -31 18 C-31.375 14.8125 -31.375 14.8125 -31 12 C-30.34 11.34 -29.68 10.68 -29 10 C-28.83312552 7.41645782 -28.83312552 7.41645782 -29 5 C-29.63808594 4.95101562 -30.27617188 4.90203125 -30.93359375 4.8515625 C-31.75988281 4.77679688 -32.58617188 4.70203125 -33.4375 4.625 C-34.26121094 4.55539063 -35.08492188 4.48578125 -35.93359375 4.4140625 C-36.61550781 4.27742188 -37.29742187 4.14078125 -38 4 C-38.33 3.34 -38.66 2.68 -39 2 C-38.31292969 2.01160156 -37.62585938 2.02320312 -36.91796875 2.03515625 C-35.56638672 2.04869141 -35.56638672 2.04869141 -34.1875 2.0625 C-32.84751953 2.07990234 -32.84751953 2.07990234 -31.48046875 2.09765625 C-28.86586209 2.11009967 -28.86586209 2.11009967 -26 1 C-23.1001617 0.76766874 -20.21668886 0.58071384 -17.3125 0.4375 C-16.53455078 0.39431641 -15.75660156 0.35113281 -14.95507812 0.30664062 C-9.9627563 0.04432513 -4.99893931 -0.03858057 0 0 Z " fill="#B52943" transform="translate(136,112)"/>
<path d="M0 0 C0 4.95 0 9.9 0 15 C2.64 15 5.28 15 8 15 C8 17.64 8 20.28 8 23 C5.36 23 2.72 23 0 23 C0 34.88 0 46.76 0 59 C2.64 59.33 5.28 59.66 8 60 C8.04241723 62.33294775 8.04092937 64.66702567 8 67 C7 68 7 68 4.1875 68.3125 C1 68 1 68 -0.875 66.0625 C-3.27591835 63.73219689 -3.98520622 63.67645927 -7.1875 63.375 C-9.0746875 63.189375 -9.0746875 63.189375 -11 63 C-12.63945963 59.72108075 -12.12030178 56.09386466 -12.09765625 52.4921875 C-12.0962413 51.65156769 -12.09482635 50.81094788 -12.09336853 49.94485474 C-12.08776237 47.25486725 -12.07520886 44.56496241 -12.0625 41.875 C-12.05748579 40.05338662 -12.05292275 38.23177193 -12.04882812 36.41015625 C-12.03779094 31.94007223 -12.0205222 27.47005014 -12 23 C-13.98 23 -15.96 23 -18 23 C-18 20.69 -18 18.38 -18 16 C-16.02 16 -14.04 16 -12 16 C-12 11.71 -12 7.42 -12 3 C-3.375 0 -3.375 0 0 0 Z " fill="#F1F0F0" transform="translate(155,47)"/>
<path d="M0 0 C2.93423195 1.79646854 4.47205355 2.9441071 6 6 C6.15175549 7.59262066 6.24900325 9.19064856 6.31640625 10.7890625 C6.35830078 11.73007813 6.40019531 12.67109375 6.44335938 13.640625 C6.48267578 14.62546875 6.52199219 15.6103125 6.5625 16.625 C6.60568359 17.61757812 6.64886719 18.61015625 6.69335938 19.6328125 C6.79961069 22.08839838 6.90164964 24.54408703 7 27 C0.85555358 29.86995261 -4.16186227 31.12526317 -11 30 C-13.87261858 27.86223734 -14.60081792 26.5069897 -15.50390625 23.09765625 C-15.78600827 20.76471732 -15.72681871 19.2417541 -15 17 C-11.75602412 13.292599 -8.24838847 11.31209712 -3.5 10.125 C-2.2625 10.063125 -2.2625 10.063125 -1 10 C-1.33 8.68 -1.66 7.36 -2 6 C-6.16138263 5.91840426 -9.9472484 6.01751476 -14 7 C-14.33 5.68 -14.66 4.36 -15 3 C-10.40212255 -0.67830196 -5.64210698 -0.86160254 0 0 Z " fill="#F2D9DE" transform="translate(94,122)"/>
<path d="M0 0 C3.23791243 1.51255945 5.71428931 3.24042246 8 6 C8.91911926 9.03902335 9.11245597 11.83717597 9 15 C-2.52164009 17.11161731 -2.52164009 17.11161731 -8 18 C-7.01 19.98 -6.02 21.96 -5 24 C-0.71 24 3.58 24 8 24 C8 25.32 8 26.64 8 28 C3.22466829 30.54684358 -1.7242388 30.69532273 -7 30 C-11.3747615 27.57991917 -13.42924503 24.7122649 -15 20 C-16.28666334 8.77350892 -16.28666334 8.77350892 -12.6875 3.8125 C-7.95172729 0.61860678 -5.83097035 -0.76471742 0 0 Z " fill="#F7E9EB" transform="translate(66,125)"/>
<path d="M0 0 C1.98 0 3.96 0 6 0 C4.125 16.875 4.125 16.875 2 19 C1.71671501 20.37452545 1.48649816 21.76011341 1.28125 23.1484375 C1.08982422 24.40914062 1.08982422 24.40914062 0.89453125 25.6953125 C0.76433594 26.57960937 0.63414062 27.46390625 0.5 28.375 C0.24195494 30.11233307 -0.01836899 31.84932959 -0.28125 33.5859375 C-0.39533203 34.3598584 -0.50941406 35.1337793 -0.62695312 35.93115234 C-1 38 -1 38 -2 41 C-3.98 41 -5.96 41 -8 41 C-7.86980469 40.18917969 -7.73960937 39.37835938 -7.60546875 38.54296875 C-6.51282284 29.77116656 -7.75087265 24.62911502 -12 17 C-13.11346978 14.83809956 -14.21767536 12.67140219 -15.3125 10.5 C-15.82425781 9.5203125 -16.33601563 8.540625 -16.86328125 7.53125 C-18 5 -18 5 -18 2 C-15.69 2 -13.38 2 -11 2 C-10.5875 3.134375 -10.175 4.26875 -9.75 5.4375 C-8.02652502 10.0471771 -6.04128726 14.52367464 -4 19 C-3.52040222 16.77092605 -3.0413392 14.54173703 -2.5625 12.3125 C-2.29566406 11.07113281 -2.02882812 9.82976562 -1.75390625 8.55078125 C-1.14944864 5.70387985 -0.56235316 2.85544374 0 0 Z " fill="#F7E8EB" transform="translate(143,116)"/>
<path d="M0 0 C0 7.26 0 14.52 0 22 C-4.20131541 24.10065771 -9.43432265 23.52872285 -14 23 C-16.75 21.0625 -16.75 21.0625 -18 18 C-18.62896169 13.80944804 -18.38317808 10.23164383 -17.125 6.1875 C-12.49690289 1.42328239 -6.45768324 0 0 0 Z " fill="#2D292A" transform="translate(117,86)"/>
<path d="M0 0 C0.5625 1.9375 0.5625 1.9375 1 4 C-0.96822886 5.96822886 -4.34808709 5.66248381 -7 6 C-6.89308764 8.41736836 -6.89308764 8.41736836 -6 11 C-3.70431342 12.60922008 -3.70431342 12.60922008 -0.9375 13.8125 C3.81758669 16.40310911 3.81758669 16.40310911 4.66015625 19.16015625 C4.625 21.375 4.625 21.375 4 25 C3.34 25 2.68 25 2 25 C1.67 25.99 1.34 26.98 1 28 C-2.07044321 30.08845462 -4.59912751 30.22107559 -8.25 30.125 C-9.14203125 30.10695312 -10.0340625 30.08890625 -10.953125 30.0703125 C-11.62859375 30.04710937 -12.3040625 30.02390625 -13 30 C-12.67 28.35 -12.34 26.7 -12 25 C-8.04 24.505 -8.04 24.505 -4 24 C-3.3185177 22.10820797 -3.3185177 22.10820797 -3 20 C-4.89845558 17.77610918 -4.89845558 17.77610918 -7.875 17.1875 C-11.64970769 15.75311108 -12.95605621 14.45898179 -15 11 C-15.74812849 7.00998139 -15.34903824 5.53519196 -13.125 2.125 C-8.75880954 -0.84400951 -5.12683554 -0.44797592 0 0 Z " fill="#F7E8EB" transform="translate(120,119)"/>
<path d="M0 0 C3.24061785 0.69274077 4.97525303 2.00731591 7.15625 4.4609375 C8.70345987 7.91240566 8.22789839 11.73522101 8.15625 15.4609375 C1.05919338 16.80589578 -5.6162895 17.70185285 -12.84375 17.4609375 C-12.6341619 6.7528909 -12.6341619 6.7528909 -9.84375 2.7734375 C-6.29389635 0.03709198 -4.37883923 -0.30651875 0 0 Z " fill="#272425" transform="translate(60.84375,68.5390625)"/>
<path d="M0 0 C2.93423195 1.79646854 4.47205355 2.9441071 6 6 C6.36294301 9.50965094 6.46744 13.03825349 6.625 16.5625 C6.70234375 18.03879883 6.70234375 18.03879883 6.78125 19.54492188 C6.82507813 20.48013672 6.86890625 21.41535156 6.9140625 22.37890625 C6.9548291 23.2407251 6.9955957 24.10254395 7.03759766 24.99047852 C7 27 7 27 6 28 C4.00041636 28.04080783 1.99954746 28.04254356 0 28 C0.33 27.34 0.66 26.68 1 26 C0.91219597 23.95501575 0.75758462 21.91255052 0.5625 19.875 C0.46066406 18.77929688 0.35882813 17.68359375 0.25390625 16.5546875 C0.17011719 15.71164063 0.08632812 14.86859375 0 14 C-1.32 14 -2.64 14 -4 14 C-3.67 13.01 -3.34 12.02 -3 11 C-1.68 11 -0.36 11 1 11 C0.00864359 8.3726974 0.00864359 8.3726974 -2 6 C-6.18293776 5.53522914 -9.92475227 6.01206116 -14 7 C-14.33 5.68 -14.66 4.36 -15 3 C-10.40212255 -0.67830196 -5.64210698 -0.86160254 0 0 Z " fill="#F6E6E9" transform="translate(94,122)"/>
<path d="M0 0 C2.3125 1.9375 2.3125 1.9375 4 4 C7.14481791 4.80315654 7.14481791 4.80315654 10 5 C10 5.33 10 5.66 10 6 C7.69 6 5.38 6 3 6 C2.67 9.3 2.34 12.6 2 16 C4.64 16 7.28 16 10 16 C10 16.33 10 16.66 10 17 C8.54207116 17.05399736 7.08357288 17.09279177 5.625 17.125 C4.40683594 17.15980469 4.40683594 17.15980469 3.1640625 17.1953125 C1 17 1 17 -1 15 C-1.99 17.475 -1.99 17.475 -3 20 C-3.33 20 -3.66 20 -4 20 C-3.85879286 18.06215735 -3.71187127 16.12473045 -3.5625 14.1875 C-3.48128906 13.10855469 -3.40007812 12.02960938 -3.31640625 10.91796875 C-3 8 -3 8 -2 5 C-4.31 5 -6.62 5 -9 5 C-9 4.34 -9 3.68 -9 3 C-10.32 2.34 -11.64 1.68 -13 1 C-9.0766834 -0.9616583 -4.27750824 -0.48448678 0 0 Z " fill="#AA223B" transform="translate(152,110)"/>
<path d="M0 0 C1.29449495 3.88348484 1.13203312 6.90697336 1 11 C0 12 0 12 -3.4375 12.25 C-4.613125 12.1675 -5.78875 12.085 -7 12 C-9.16551116 8.75173326 -9.55156953 7.76905843 -9 4 C-6.32031823 0.3278435 -4.49792702 -0.49976967 0 0 Z " fill="#BA2C46" transform="translate(94,136)"/>
<path d="M0 0 C1.8125 1.1875 1.8125 1.1875 3 3 C3.1875 5.6875 3.1875 5.6875 3 8 C-0.82320557 9.42258812 -3.91281305 10.24042276 -8 10 C-8.36272727 3.59181818 -8.36272727 3.59181818 -6.8125 1.0625 C-4.33950907 -0.38718434 -2.82115488 -0.42317323 0 0 Z " fill="#BF3952" transform="translate(65,129)"/>
<path d="M0 0 C2.47724402 0.442365 3.88679545 0.90943636 5.875 2.5 C8.53604574 4.37838523 10.79984114 4.63634558 14 5 C13.67 5.99 13.34 6.98 13 8 C6.4 7.34 -0.2 6.68 -7 6 C-4.68143083 4.45428722 -2.49361571 3.20381448 0 2 C0 1.34 0 0.68 0 0 Z " fill="#3C2126" transform="translate(90,111)"/>
<path d="M0 0 C2 1 2 1 3.1875 3.0625 C4.65718635 8.37598141 3.15990325 13.69758513 2 19 C3.98 19 5.96 19 8 19 C8.33 18.01 8.66 17.02 9 16 C8.67 17.65 8.34 19.3 8 21 C5.69 21 3.38 21 1 21 C0.06145994 13.96094956 -0.10808032 7.09727428 0 0 Z " fill="#C14057" transform="translate(133,138)"/>
<path d="M0 0 C0.66 0.66 1.32 1.32 2 2 C1.00419922 2.02126953 1.00419922 2.02126953 -0.01171875 2.04296875 C-4.31228934 2.27526234 -7.31278764 2.59328248 -11.0625 4.8125 C-13.9828767 9.6169907 -13.90297428 14.46953411 -14 20 C-14.33 20 -14.66 20 -15 20 C-15.78520641 8.08231154 -15.78520641 8.08231154 -12.6875 3.8125 C-7.9695418 0.63062121 -5.78198625 -0.42050809 0 0 Z " fill="#E8B9C1" transform="translate(66,125)"/>
<path d="M0 0 C0.33 0 0.66 0 1 0 C1 1.98 1 3.96 1 6 C6.445 5.01 6.445 5.01 12 4 C11.34 4.66 10.68 5.32 10 6 C10.33 6.66 10.66 7.32 11 8 C8.36 8.66 5.72 9.32 3 10 C3 9.34 3 8.68 3 8 C2.01 7.67 1.02 7.34 0 7 C0 4.69 0 2.38 0 0 Z " fill="#EECBD2" transform="translate(56,133)"/>
<path d="M0 0 C0 1.98 0 3.96 0 6 C-2.31 6 -4.62 6 -7 6 C-7 4.35 -7 2.7 -7 1 C-4.53721199 -0.231394 -2.7204945 -0.07159196 0 0 Z " fill="#B61F3B" transform="translate(65,132)"/>
<path d="M0 0 C0.66 0 1.32 0 2 0 C3.4783226 2.95664519 3.06032783 5.74229737 3 9 C0.36 9.33 -2.28 9.66 -5 10 C-5 9.01 -5 8.02 -5 7 C-3.35 7 -1.7 7 0 7 C0 4.69 0 2.38 0 0 Z " fill="#3B3738" transform="translate(66,75)"/>
<path d="M0 0 C0 0.33 0 0.66 0 1 C-2.97 1 -5.94 1 -9 1 C-9.66 2.32 -10.32 3.64 -11 5 C-11.99 5.33 -12.98 5.66 -14 6 C-14 7.65 -14 9.3 -14 11 C-14.33 11 -14.66 11 -15 11 C-15.44823695 7.14516221 -15.27280781 5.41830531 -13.125 2.125 C-8.75880954 -0.84400951 -5.12683554 -0.44797592 0 0 Z " fill="#E2A5B0" transform="translate(120,119)"/>
<path d="M0 0 C-1.32 0.33 -2.64 0.66 -4 1 C-4 1.66 -4 2.32 -4 3 C-8.29 2.67 -12.58 2.34 -17 2 C-17 1.67 -17 1.34 -17 1 C-11.29014022 0.25983299 -5.75813575 -0.10469338 0 0 Z " fill="#181617" transform="translate(74,116)"/>
<path d="M0 0 C0.33 0 0.66 0 1 0 C1 2.31 1 4.62 1 7 C-2.3 7.33 -5.6 7.66 -9 8 C-9.33 7.01 -9.66 6.02 -10 5 C-6.7 5.33 -3.4 5.66 0 6 C0 4.02 0 2.04 0 0 Z " fill="#686566" transform="translate(116,74)"/>
<path d="M0 0 C-3.83542457 2.55694972 -5.65902533 2.04045639 -10.1875 1.625 C-12.09595703 1.45871094 -12.09595703 1.45871094 -14.04296875 1.2890625 C-15.01878906 1.19367188 -15.99460938 1.09828125 -17 1 C-17 0.67 -17 0.34 -17 0 C-14.9174133 -0.19561869 -12.83388144 -0.38119313 -10.75 -0.5625 C-9.58984375 -0.66691406 -8.4296875 -0.77132812 -7.234375 -0.87890625 C-4.48128523 -0.98198087 -2.580018 -0.86213473 0 0 Z " fill="#5B5858" transform="translate(77,90)"/>
<path d="M0 0 C2 1 2 1 3.1875 3.3125 C4.03624754 6.11989571 3.99928333 7.301935 3 10 C3 9.01 3 8.02 3 7 C2.01 6.67 1.02 6.34 0 6 C0 4.02 0 2.04 0 0 Z " fill="#C44A60" transform="translate(133,138)"/>
<path d="M0 0 C0.66 0 1.32 0 2 0 C2 1.65 2 3.3 2 5 C-0.31 5 -2.62 5 -5 5 C-3.68 4.67 -2.36 4.34 -1 4 C-0.67 2.68 -0.34 1.36 0 0 Z " fill="#BA2C47" transform="translate(66,132)"/>
<path d="M0 0 C0.99 0.33 1.98 0.66 3 1 C2.319375 1.61875 2.319375 1.61875 1.625 2.25 C-0.05950374 4.06408095 -0.99265971 5.75285627 -2 8 C-2.6875 6.25 -2.6875 6.25 -3 4 C-1.5625 1.75 -1.5625 1.75 0 0 Z " fill="#484445" transform="translate(43,65)"/>
</svg>
